{
	"asset":{
		"generator":"Khronos glTF Blender I/O v3.6.28",
		"version":"2.0"
	},
	"scene":0,
	"scenes":[
		{
			"name":"Scene",
			"nodes":[
				0,
				1,
				2,
				3
			]
		}
	],
	"nodes":[
		{
			"mesh":0,
			"name":"Cube"
		},
		{
			"mesh":1,
			"name":"Cube.001",
			"translation":[
				-0.30230826139450073,
				1.0667060613632202,
				-0.0023316405713558197
			]
		},
		{
			"mesh":2,
			"name":"Plane",
			"scale":[
				0.8422052264213562,
				0.8422052264213562,
				0.8422052264213562
			],
			"translation":[
				-0.40045708417892456,
				2.7910425662994385,
				-0.03930710628628731
			]
		},
		{
			"mesh":3,
			"name":"Cube.002",
			"rotation":[
				0.9999308586120605,
				0,
				0,
				0.011760602705180645
			],
			"translation":[
				-0.20631921291351318,
				3.8004016876220703,
				-0.13466861844062805
			]
		}
	],
	"materials":[
		{
			"doubleSided":true,
			"name":"Bun Material",
			"pbrMetallicRoughness":{
				"baseColorFactor":[
					0.8000000715255737,
					0.41419506072998047,
					0.16755585372447968,
					1
				],
				"metallicFactor":0
			}
		},
		{
			"doubleSided":true,
			"name":"Meat Material",
			"pbrMetallicRoughness":{
				"baseColorFactor":[
					0.2597978413105011,
					0.02292758971452713,
					0,
					1
				],
				"metallicFactor":0,
				"roughnessFactor":0.5
			}
		},
		{
			"doubleSided":true,
			"name":"Cheese Material",
			"pbrMetallicRoughness":{
				"baseColorFactor":[
					0.8000000715255737,
					0.31835949420928955,
					0,
					1
				],
				"metallicFactor":0,
				"roughnessFactor":0.5
			}
		}
	],
	"meshes":[
		{
			"name":"Mesh",
			"primitives":[
				{
					"attributes":{
						"POSITION":0,
						"NORMAL":1
					},
					"indices":2,
					"material":0
				}
			]
		},
		{
			"name":"Mesh",
			"primitives":[
				{
					"attributes":{
						"POSITION":3,
						"NORMAL":4
					},
					"indices":5,
					"material":1
				}
			]
		},
		{
			"name":"Plane",
			"primitives":[
				{
					"attributes":{
						"POSITION":6,
						"NORMAL":7
					},
					"indices":8,
					"material":2
				}
			]
		},
		{
			"name":"Mesh",
			"primitives":[
				{
					"attributes":{
						"POSITION":9,
						"NORMAL":10
					},
					"indices":2,
					"material":0
				}
			]
		}
	],
	"accessors":[
		{
			"bufferView":0,
			"componentType":5126,
			"count":3586,
			"max":[
				3.9712698459625244,
				1.5163699388504028,
				4.631841659545898
			],
			"min":[
				-4.593052864074707,
				0.03774365782737732,
				-4.5027360916137695
			],
			"type":"VEC3"
		},
		{
			"bufferView":1,
			"componentType":5126,
			"count":3586,
			"type":"VEC3"
		},
		{
			"bufferView":2,
			"componentType":5123,
			"count":21504,
			"type":"SCALAR"
		},
		{
			"bufferView":3,
			"componentType":5126,
			"count":5634,
			"max":[
				4.385085582733154,
				1.4984900951385498,
				4.3850860595703125
			],
			"min":[
				-4.3850860595703125,
				0.03258063644170761,
				-4.385085582733154
			],
			"type":"VEC3"
		},
		{
			"bufferView":4,
			"componentType":5126,
			"count":5634,
			"type":"VEC3"
		},
		{
			"bufferView":5,
			"componentType":5123,
			"count":33792,
			"type":"SCALAR"
		},
		{
			"bufferView":6,
			"componentType":5126,
			"count":384,
			"max":[
				4.501908779144287,
				0,
				4.501908779144287
			],
			"min":[
				-4.501908779144287,
				-1.0154032707214355,
				-4.501908779144287
			],
			"type":"VEC3"
		},
		{
			"bufferView":7,
			"componentType":5126,
			"count":384,
			"type":"VEC3"
		},
		{
			"bufferView":8,
			"componentType":5123,
			"count":1716,
			"type":"SCALAR"
		},
		{
			"bufferView":9,
			"componentType":5126,
			"count":3586,
			"max":[
				4.2458930015563965,
				1.4419641494750977,
				4.2458930015563965
			],
			"min":[
				-4.245893478393555,
				0.04386752098798752,
				-4.245894432067871
			],
			"type":"VEC3"
		},
		{
			"bufferView":10,
			"componentType":5126,
			"count":3586,
			"type":"VEC3"
		}
	],
	"bufferViews":[
		{
			"buffer":0,
			"byteLength":43032,
			"byteOffset":0,
			"target":34962
		},
		{
			"buffer":0,
			"byteLength":43032,
			"byteOffset":43032,
			"target":34962
		},
		{
			"buffer":0,
			"byteLength":43008,
			"byteOffset":86064,
			"target":34963
		},
		{
			"buffer":0,
			"byteLength":67608,
			"byteOffset":129072,
			"target":34962
		},
		{
			"buffer":0,
			"byteLength":67608,
			"byteOffset":196680,
			"target":34962
		},
		{
			"buffer":0,
			"byteLength":67584,
			"byteOffset":264288,
			"target":34963
		},
		{
			"buffer":0,
			"byteLength":4608,
			"byteOffset":331872,
			"target":34962
		},
		{
			"buffer":0,
			"byteLength":4608,
			"byteOffset":336480,
			"target":34962
		},
		{
			"buffer":0,
			"byteLength":3432,
			"byteOffset":341088,
			"target":34963
		},
		{
			"buffer":0,
			"byteLength":43032,
			"byteOffset":344520,
			"target":34962
		},
		{
			"buffer":0,
			"byteLength":43032,
			"byteOffset":387552,
			"target":34962
		}
	],
	"buffers":[
		{
			"byteLength":430584,
			"uri":"data:application/octet-stream;base64,"
		}
	]
}
